<?xml version="1.0" encoding="utf-8"?>
<!-- Generator: Adobe Illustrator 21.1.0, SVG Export Plug-In . SVG Version: 6.00 Build 0)  -->
<svg version="1.1" id="Шар_1" xmlns="http://www.w3.org/2000/svg" xmlns:xlink="http://www.w3.org/1999/xlink" x="0px" y="0px"
	 viewBox="0 0 200 200" style="enable-background:new 0 0 200 200;" xml:space="preserve">
<style type="text/css">
	.st0{fill:none;stroke:#32A4C2;stroke-width:6;stroke-miterlimit:10;}
	.st1{fill:#FFFFFF;stroke:#32A4C2;stroke-width:6;stroke-miterlimit:10;}
	.st2{fill:#32A4C2;stroke:#32A4C2;stroke-width:6;stroke-miterlimit:10;}
</style>
<g>
	<ellipse class="st0" cx="123" cy="57" rx="42.3" ry="36"/>
	<path class="st0" d="M147.7,102.7c-8.3,0-20.5,6.9-20.5,20.8c0,3.9,1.4,7.5,1.5,10.1c0.5,6.4-1.6,5.7,2.3,12.7
		c3.1,5.6,6.9,8.1,6.5,13.7c0,1.5,0.6,8.5-6.7,11.8c-7.3,3.3-26,11-26,21.8c20.3,0,42.9,0,42.9,0s22.6,0,42.9,0
		c0-10.8-18.7-18.5-26-21.8c-7.3-3.3-6.7-10.3-6.7-11.8c-0.5-5.6,3.3-8.1,6.5-13.7c3.9-7,1.8-6.2,2.3-12.7c0.2-2.4,1.5-6.2,1.5-10.1
		C168.2,109.6,156,102.7,147.7,102.7z"/>
	<path class="st0" d="M52.8,102.7c-8.3,0-20.5,6.9-20.5,20.8c0,3.9,1.4,7.5,1.5,10.1c0.5,6.4-1.6,5.7,2.3,12.7
		c3.1,5.6,6.9,8.1,6.5,13.7c0,1.5,0.6,8.5-6.7,11.8c-7.3,3.3-26,11-26,21.8c20.3,0,42.9,0,42.9,0s22.6,0,42.9,0
		c0-10.8-18.7-18.5-26-21.8c-7.3-3.3-6.7-10.3-6.7-11.8c-0.5-5.6,3.3-8.1,6.5-13.7c3.9-7,1.8-6.2,2.3-12.7c0.2-2.4,1.5-6.2,1.5-10.1
		C73.2,109.6,61.1,102.7,52.8,102.7z"/>
	<ellipse class="st1" cx="69.6" cy="45.4" rx="42.3" ry="36"/>
	<ellipse class="st0" cx="19.7" cy="86.5" rx="12.9" ry="10.6"/>
	<ellipse class="st0" cx="180.1" cy="89.9" rx="12.9" ry="10.6"/>
	<ellipse class="st2" cx="184.4" cy="116.2" rx="6.4" ry="4.9"/>
	<ellipse class="st2" cx="15.2" cy="112.8" rx="6.4" ry="4.9"/>
</g>
</svg>
