<?xml version="1.0" encoding="utf-8"?>
<!-- Generator: Adobe Illustrator 21.1.0, SVG Export Plug-In . SVG Version: 6.00 Build 0)  -->
<svg version="1.1" id="Шар_1" xmlns="http://www.w3.org/2000/svg" xmlns:xlink="http://www.w3.org/1999/xlink" x="0px" y="0px"
	 viewBox="0 0 200 200" style="enable-background:new 0 0 200 200;" xml:space="preserve">
<style type="text/css">
	.st0{fill:none;stroke:#32A4C2;stroke-width:7;stroke-miterlimit:10;}
	.st1{fill:#FFFFFF;stroke:#32A4C2;stroke-width:7;stroke-miterlimit:10;}
	.st2{fill:none;stroke:#32A4C2;stroke-width:7;stroke-linecap:round;stroke-miterlimit:10;}
</style>
<g>
	<path class="st0" d="M99.6,107.8"/>
	<path class="st0" d="M117.7,168.6c0,0,22,1.3,58.5,3.2c1.1-24.7-13.2-35.7-26.3-41.9c-9.3-4.4-9-16.6-8.8-19.4
		c-0.3-10.2,6.6-18.1,12.6-28c7.5-12.1,3.4-11.7,4.7-23.2c0.5-4.4,1.6-7.8,1.9-14.7c1.1-24.9-9.1-37.8-34.9-39S88.2,16.2,87,41.3
		c-0.3,6.8,0.5,10.3,0.6,14.7c0.3,11.6-3.8,10.7,2.5,23.6c5.1,10.3,11.2,18.9,10,29c-0.1,2.8-1.1,14.9-10.6,18.4
		c-13.5,4.9-47.4,13.2-48.7,37.9C77.1,166.7,117.7,168.6,117.7,168.6z"/>
	<path class="st1" d="M81.3,168.1c0,0,40.7,0,77,0c0-24.8-33.5-34.7-46.8-40.2c-9.5-3.9-9.8-16.1-9.8-18.9
		c-0.8-10.2,5.7-18.4,11.3-28.6c6.9-12.5,2.8-11.9,3.5-23.4c0.3-4.4,1.2-7.8,1.2-14.8C118,17.5,107.1,5.1,81.3,5.1
		S44.6,17.5,44.6,42.4c0,6.9,1,10.3,1.2,14.8c0.8,11.5-3.3,10.9,3.5,23.4c5.7,10.2,12.1,18.4,11.3,28.6c0,2.8-0.3,14.9-9.8,18.9
		c-13.2,5.5-46.8,15.4-46.8,40.2C40.5,168.1,81.3,168.1,81.3,168.1z"/>
	<circle class="st1" cx="148.3" cy="149" r="45.9"/>
	<line class="st2" x1="146.8" y1="124.2" x2="146.8" y2="173.3"/>
	<line class="st2" x1="171.4" y1="148.8" x2="122.3" y2="148.8"/>
</g>
</svg>
