<?xml version="1.0" encoding="utf-8"?>
<!-- Generator: Adobe Illustrator 21.1.0, SVG Export Plug-In . SVG Version: 6.00 Build 0)  -->
<svg version="1.1" id="Шар_1" xmlns="http://www.w3.org/2000/svg" xmlns:xlink="http://www.w3.org/1999/xlink" x="0px" y="0px"
	 viewBox="0 0 200 200" style="enable-background:new 0 0 200 200;" xml:space="preserve">
<style type="text/css">
	.st0{fill:#FFFFFF;stroke:#32A4C2;stroke-width:7;stroke-miterlimit:10;}
</style>
<g>
	<g>
		<path class="st0" d="M164.9,195.9L37.4,165.8c-0.5-0.1-0.9-0.7-0.7-1.1L66.8,37.2c0.1-0.5,0.7-0.9,1.1-0.7l127.5,30
			c0.5,0.1,0.9,0.7,0.7,1.1L166,195.2C165.9,195.7,165.4,196,164.9,195.9z"/>
		<path class="st0" d="M155.8,167l-97.3-22.9c-0.5-0.1-0.9-0.7-0.7-1.1l20.6-87.2c0.1-0.5,0.7-0.9,1.1-0.7l97.3,23
			c0.5,0.1,0.9,0.7,0.7,1.1l-20.6,87.2C156.8,166.8,156.3,167.2,155.8,167z"/>
		<path class="st0" d="M107.1,155.5c0,0,20.3,4.8,38.4,9.1c2.9-12.4-12.6-21.3-18.6-25.6c-4.2-3.1-3-9.2-2.7-10.5
			c0.8-5.2,5-8.5,9-12.8c4.9-5.4,2.8-5.6,4.5-11.2c0.7-2.2,1.5-3.7,2.3-7.2c3-12.5-1.1-19.8-13.9-22.9c-12.7-3.1-19.6,1.8-22.5,14.2
			c-0.9,3.4-0.8,5.3-1.1,7.5c-1,5.8-3,5.1-1,12.1c1.6,5.7,3.8,10.5,2.3,15.5c-0.3,1.3-1.9,7.4-7.1,8.2c-7.3,1.1-25.1,2.2-28.1,14.6
			C86.8,150.8,107.1,155.5,107.1,155.5z"/>
	</g>
	<g>
		<path class="st0" d="M155.8,169.4l-129.4-20c-0.5-0.1-0.9-0.6-0.8-1.1l20-129.5c0.1-0.5,0.6-0.9,1.1-0.8l129.4,20
			c0.5,0.1,0.9,0.6,0.8,1.1l-20,129.4C156.8,169.1,156.3,169.5,155.8,169.4z"/>
		<path class="st0" d="M144.5,141.4l-98.9-15.3c-0.5-0.1-0.9-0.6-0.8-1.1l13.7-88.5c0.1-0.5,0.6-0.9,1.1-0.8l98.9,15.3
			c0.5,0.1,0.9,0.6,0.8,1.1l-13.7,88.5C145.4,141.2,145,141.5,144.5,141.4z"/>
		<path class="st0" d="M95.1,133.8c0,0,20.6,3.2,39,6c1.9-12.5-14.3-20.2-20.5-24c-4.5-2.7-3.6-8.9-3.4-10.3c0.4-5.2,4.3-8.8,8-13.5
			c4.5-5.7,2.3-5.7,3.6-11.5c0.5-2.2,1.2-3.8,1.8-7.4c1.9-12.6-2.6-19.7-15.6-21.7s-19.5,3.4-21.5,16c-0.6,3.5-0.4,5.3-0.6,7.6
			c-0.5,5.8-2.5,5.3,0,12.1c2,5.6,4.7,10.2,3.4,15.3c-0.2,1.4-1.3,7.6-6.4,8.8c-7.1,1.7-24.9,4.1-26.8,16.7
			C74.5,130.5,95.1,133.8,95.1,133.8z"/>
	</g>
	<g>
		<path class="st0" d="M139,141.5H6.5c-0.6,0-1-0.5-1-1V8.1c0-0.5,0.5-1,1-1H139c0.6,0,1,0.5,1,1v132.5
			C140,141.2,139.5,141.5,139,141.5z"/>
		<path class="st0" d="M123.3,115.3H22.2c-0.5,0-1-0.5-1-1V23.7c0-0.6,0.5-1,1-1h101.2c0.5,0,1,0.4,1,1v90.6
			C124.3,114.8,123.9,115.3,123.3,115.3z"/>
		<path class="st0" d="M72.7,115.3c0,0,21.1,0,39.9,0c0-12.8-17.3-18-24.2-20.9c-4.9-2-5.1-8.3-5.1-9.8c-0.4-5.3,3-9.5,5.8-14.8
			c3.5-6.4,1.4-6.1,1.8-12.1c0.2-2.3,0.7-4,0.7-7.7c0-12.9-5.7-19.3-19-19.3s-19,6.4-19,19.3c0,3.5,0.5,5.4,0.7,7.7
			c0.4,5.9-1.7,5.7,1.8,12.1c2.9,5.3,6.2,9.5,5.8,14.8c0,1.4-0.2,7.8-5.1,9.8c-6.9,2.9-24.2,8-24.2,20.9
			C51.7,115.3,72.7,115.3,72.7,115.3z"/>
	</g>
</g>
</svg>
