<?xml version="1.0" encoding="utf-8"?>
<!-- Generator: Adobe Illustrator 21.1.0, SVG Export Plug-In . SVG Version: 6.00 Build 0)  -->
<svg version="1.1" id="Шар_1" xmlns="http://www.w3.org/2000/svg" xmlns:xlink="http://www.w3.org/1999/xlink" x="0px" y="0px"
	 viewBox="0 0 200 200" style="enable-background:new 0 0 200 200;" xml:space="preserve">
<style type="text/css">
	.st0{fill:none;stroke:#32A4C2;stroke-width:7;stroke-miterlimit:10;}
</style>
<g>
	<line class="st0" x1="57.6" y1="8.5" x2="91.2" y2="8.5"/>
	<line class="st0" x1="110.7" y1="8.5" x2="144.4" y2="8.5"/>
	<line class="st0" x1="109.9" y1="8.5" x2="143.5" y2="8.5"/>
	<polyline class="st0" points="38.2,8.5 5.7,8.5 5.7,125.7 195.4,125.7 195.4,8.5 162.3,8.5 	"/>
	<line class="st0" x1="82.3" y1="125.7" x2="82.3" y2="196.5"/>
	<line class="st0" x1="118.2" y1="125.7" x2="118.2" y2="196.5"/>
	<line class="st0" x1="66.3" y1="196.5" x2="135.6" y2="196.5"/>
	<g>
		<line class="st0" x1="48" y1="2.5" x2="48" y2="21.8"/>
		<line class="st0" x1="40.8" y1="21.8" x2="55" y2="21.8"/>
	</g>
	<g>
		<line class="st0" x1="100.6" y1="2.5" x2="100.6" y2="21.8"/>
		<line class="st0" x1="93.5" y1="21.8" x2="107.7" y2="21.8"/>
	</g>
	<g>
		<line class="st0" x1="153.4" y1="2.5" x2="153.4" y2="21.8"/>
		<line class="st0" x1="146.3" y1="21.8" x2="160.6" y2="21.8"/>
	</g>
</g>
</svg>
