<?xml version="1.0" encoding="utf-8"?>
<!-- Generator: Adobe Illustrator 21.1.0, SVG Export Plug-In . SVG Version: 6.00 Build 0)  -->
<svg version="1.1" id="Шар_1" xmlns="http://www.w3.org/2000/svg" xmlns:xlink="http://www.w3.org/1999/xlink" x="0px" y="0px"
	 viewBox="0 0 854 463.3" style="enable-background:new 0 0 854 463.3;" xml:space="preserve">
<style type="text/css">
	.st0{fill:#1AA9C0;}
	.st1{opacity:0.1;fill:#FFFFFF;}
</style>
<path class="st0" d="M0,386.9v76.4h854V0h-28.1c-62.1,278.2-281.1,380-396.5,409c-140.8,35.4-291.5,31.4-428.8-21.9L0,386.9z"/>
<path class="st1" d="M635.5,363C791.5,285,854,165,854,153c0-58,1-96.1,1-153h-29.1c-62.1,278.2-281.1,380-396.5,409
	c-140.8,35.4-291.5,31.4-428.8-21.9L0,386.9C181,460,447.3,457.1,635.5,363z"/>
<path class="st1" d="M741.5,399c70-25.5,112.5-55,112.5-55c0-58,1-287.1,1-344h-29.1c-62.1,278.2-281.1,380-396.5,409
	c-140.8,35.4-291.5,31.4-428.8-21.9L0,386.9C181,460,467.4,498.8,741.5,399z"/>
</svg>
